<?xml version="1.0" standalone="no"?><!DOCTYPE svg PUBLIC "-//W3C//DTD SVG 1.1//EN" "http://www.w3.org/Graphics/SVG/1.1/DTD/svg11.dtd"><svg t="1531846663831" class="icon" style="" viewBox="0 0 1024 1024" version="1.1" xmlns="http://www.w3.org/2000/svg" p-id="4475" xmlns:xlink="http://www.w3.org/1999/xlink" width="32" height="32"><defs><style type="text/css"></style></defs><path d="M512 256c-19.2 0-32-12.8-32-32V32c0-16 12.8-32 32-32 16 0 32 12.8 32 32v192c0 19.2-12.8 32-32 32zM512 1024c-19.2 0-32-12.8-32-32v-192c0-16 12.8-32 32-32 16 0 32 12.8 32 32v192c0 19.2-12.8 32-32 32zM640 291.2c-16-9.6-19.2-28.8-12.8-44.8l96-166.4c9.6-16 28.8-19.2 44.8-12.8 16 9.6 19.2 28.8 12.8 44.8l-96 166.4c-9.6 16-28.8 19.2-44.8 12.8zM256 956.8c-16-9.6-19.2-28.8-12.8-44.8l96-166.4c9.6-16 28.8-19.2 44.8-12.8 16 9.6 19.2 28.8 12.8 44.8l-96 166.4c-9.6 16-28.8 19.2-44.8 12.8zM1024 512c0 19.2-12.8 32-32 32h-192c-16 0-32-12.8-32-32 0-16 12.8-32 32-32h192c19.2 0 32 12.8 32 32zM256 512c0 19.2-12.8 32-32 32H32c-16 0-32-12.8-32-32 0-16 12.8-32 32-32h192c19.2 0 32 12.8 32 32zM67.2 768c-9.6-16-3.2-35.2 12.8-44.8l166.4-96c16-9.6 35.2-3.2 44.8 12.8 9.6 16 3.2 35.2-12.8 44.8l-166.4 96c-16 6.4-35.2 3.2-44.8-12.8zM732.8 384c-9.6-16-3.2-35.2 12.8-44.8l166.4-96c16-6.4 35.2-3.2 44.8 12.8 9.6 16 3.2 35.2-12.8 44.8l-166.4 96c-16 6.4-35.2 3.2-44.8-12.8zM956.8 768c-9.6 16-28.8 19.2-44.8 12.8l-166.4-96c-16-9.6-19.2-28.8-12.8-44.8 9.6-16 28.8-19.2 44.8-12.8l166.4 96c16 9.6 19.2 28.8 12.8 44.8zM291.2 384c-9.6 16-28.8 19.2-44.8 12.8l-166.4-96c-16-9.6-19.2-28.8-12.8-44.8 9.6-16 28.8-19.2 44.8-12.8l166.4 96c16 9.6 19.2 28.8 12.8 44.8zM774.4 950.4c-16 9.6-35.2 3.2-44.8-9.6l-99.2-163.2c-9.6-16-3.2-35.2 9.6-44.8 16-9.6 35.2-3.2 44.8 9.6l99.2 163.2c12.8 16 6.4 35.2-9.6 44.8zM380.8 291.2c-16 9.6-35.2 3.2-44.8-9.6L236.8 118.4c-9.6-16-3.2-35.2 12.8-44.8 12.8-9.6 35.2-3.2 41.6 9.6l99.2 163.2c9.6 16 6.4 38.4-9.6 44.8z" fill="#409eff" p-id="4476"></path></svg>