<?xml version="1.0" standalone="no"?><!DOCTYPE svg PUBLIC "-//W3C//DTD SVG 1.1//EN" "http://www.w3.org/Graphics/SVG/1.1/DTD/svg11.dtd"><svg t="1530287135615" class="icon" style="" viewBox="0 0 1024 1024" version="1.1" xmlns="http://www.w3.org/2000/svg" p-id="16659" xmlns:xlink="http://www.w3.org/1999/xlink" width="80" height="80"><defs><style type="text/css"></style></defs><path d="M889.4 280.8v634.6c0 15.7-12.7 28.4-28.4 28.4H203.4c-12 0-21.6-9.7-21.6-21.6V64.1c0-8.8 7.1-15.9 15.9-15.9h443.1c0.9 0 1.4 1.1 0.8 1.8-0.4 0.4-0.4 1.1 0.1 1.5L889 280.1c0.3 0.2 0.4 0.4 0.4 0.7z" fill="#F4F4F4" p-id="16660"></path><path d="M641 265.5V48.2l248.5 232.2H655.8c-8.2 0-14.8-6.7-14.8-14.9zM417.6 339.5H199.3c-58.4 0-105.7-47.3-105.7-105.7 0-58.4 47.3-105.7 105.7-105.7h218.2c58.4 0 105.7 47.3 105.7 105.7 0.1 58.3-47.2 105.7-105.6 105.7z" fill="#E52020" p-id="16661"></path><path d="M247.3 196.8c-5.4-4.7-13-7-22.6-7h-26.1v88h14.9v-31.4h8.9c9.3 0.3 17.3-2.3 23.5-7.7 6.3-5.5 9.6-12.7 9.6-21.5 0.1-8.8-2.7-15.6-8.2-20.4z m-33.7 6.5h9.2c11.9 0 17.4 4.5 17.4 14.2 0 5-1.5 8.7-4.5 11.3-3.1 2.6-7.8 4-13.9 4h-8.1v-29.5zM335.8 201.4c-8.9-7.7-20.1-11.6-33.4-11.6h-26.2v88h25.3c13.9 0 25.4-4.1 34.3-12.3 8.9-8.2 13.4-19.2 13.4-32.7 0-13.1-4.5-23.7-13.4-31.4z m-44.7 2H302c9.6 0 17.4 2.5 23.2 7.4 5.7 4.9 8.6 12.3 8.6 22.1 0 9.9-2.8 17.6-8.4 23-5.6 5.4-13.6 8.2-23.8 8.2h-10.3v-60.7zM418.3 203.4v-13.6h-47.7v87.9h14.9V241h30.3v-13.5h-30.3v-24.1z" fill="#FFFFFF" p-id="16662"></path><path d="M350.6 792c-11.1 0-19.7-5.1-22.2-10.2l-0.8-1.7-0.2-1.9c-2.3-20.6 4.7-40.1 20.9-58.1 18.9-21.1 50.4-40.1 93.9-56.7 11.5-22.2 23.3-47.7 35.3-76.2 0.4-0.9 17.5-42.1 31.8-88.5-34.4-69.8-21.8-109.2-8.3-128.5 3.7-5.4 7.5-9 10-11.1 3.9-3.3 8.1-6.4 13.6-4.9 1.4 0.3 2.7 0.7 4 1.3l3.8 1.2v0.6c4.9 2.8 9 7.2 11.9 12.8 10.9 21 6.9 62.5-12.2 126.7 10.2 19.4 24.4 41.6 43.9 66.9 15.1 19.7 33.1 37 53.3 51.4 1.9 1.4 3.8 2.7 5.7 4 40.5-4.7 72.4-5.3 95.3-2 25.1 3.7 40 12.3 44.3 25.7 2.3 7.1 1 16.5-4.2 20.9-11.8 9.8-26.1 14.7-42.9 14.7-11.2 0-23.5-2.2-36.8-6.6-18.7-6.2-39.2-16.5-61-30.9-11.9 1.5-24.6 3.3-38 5.5l-0.9 0.1c-6.3 0.9-68.8 10.8-129.8 32.4-1.2 0.4-2.4 0.9-3.7 1.3-16.4 30.9-32.3 55.5-47.5 73.6-20.6 24.5-40 37.3-57.8 37.8-0.6 0.4-1 0.4-1.4 0.4z m-2.5-21.4c1.8 0.3 4.4 0.4 8-0.6 8.7-2.4 23.5-11 44.3-38.3 8.3-10.9 16.8-23.8 25.5-38.6-40.8 18.6-77.6 44.4-77.8 77.5z m316.6-133c11.5 6.2 22.4 11.1 32.5 14.4 24.4 8.1 43.6 7.2 57.1-2.5-0.1-0.5-0.5-1.1-1.1-1.8-2.2-2.5-10.2-8.6-36.5-10.7-14.3-1.1-31.7-0.9-52 0.6zM523.2 524.5c-13 39.2-26.1 70.6-26.3 71-8.8 20.9-17.5 40.3-26.1 58 6.7-2.1 13.6-4.2 20.8-6.3 45.7-13.1 87.6-20.2 96.6-21.4 5.6-0.9 11.1-1.7 16.4-2.5-17-13.6-32.2-29.2-45.5-46.5-14.6-18.9-26.4-36.3-35.9-52.3zM591 646.7z m-67.9-269.9c-4 3.9-10.7 12.3-13.5 27-2.7 14.2-2 34.7 8.7 63.2 3.9-15.1 6.8-28.6 8.5-40.5 4.2-28 1.5-40.7-1.5-46.5-0.7-1.5-1.5-2.5-2.2-3.2z" fill="#E82B29" p-id="16663"></path></svg>