<?xml version="1.0" standalone="no"?><!DOCTYPE svg PUBLIC "-//W3C//DTD SVG 1.1//EN" "http://www.w3.org/Graphics/SVG/1.1/DTD/svg11.dtd"><svg t="1530288457845" class="icon" style="" viewBox="0 0 1024 1024" version="1.1" xmlns="http://www.w3.org/2000/svg" p-id="31596" xmlns:xlink="http://www.w3.org/1999/xlink" width="32" height="32"><defs><style type="text/css"></style></defs><path d="M512 204.8C229.2352 204.8 0 512 0 512s229.2352 307.2 512 307.2 512-307.2 512-307.2S794.7648 204.8 512 204.8zM512 768C309.0944 768 130.368 585.8432 66.2272 511.9488 130.24 437.9904 308.4672 256 512 256c202.9056 0 381.632 182.1568 445.7728 256.0512C893.76 586.0096 715.5328 768 512 768z" p-id="31597" fill="#ffffff"></path><path d="M512 345.6c-91.904 0-166.4 74.496-166.4 166.4s74.496 166.4 166.4 166.4 166.4-74.496 166.4-166.4S603.904 345.6 512 345.6zM512 627.2c-63.5264 0-115.2-51.6736-115.2-115.2 0-63.5264 51.6736-115.2 115.2-115.2s115.2 51.6736 115.2 115.2C627.2 575.5264 575.5264 627.2 512 627.2z" p-id="31598" fill="#ffffff"></path></svg>