<?xml version="1.0" standalone="no"?><!DOCTYPE svg PUBLIC "-//W3C//DTD SVG 1.1//EN" "http://www.w3.org/Graphics/SVG/1.1/DTD/svg11.dtd"><svg t="1530286886599" class="icon" style="" viewBox="0 0 1024 1024" version="1.1" xmlns="http://www.w3.org/2000/svg" p-id="14992" xmlns:xlink="http://www.w3.org/1999/xlink" width="80" height="80"><defs><style type="text/css"></style></defs><path d="M304 800l416 0 0 16-416 0 0-16Z" p-id="14993"></path><path d="M304 728l416 0 0 16-416 0 0-16Z" p-id="14994"></path><path d="M400.7 408 392 448 488 448 440 648 496 648 544 448 640 448 648 408Z" p-id="14995"></path><path d="M443.1 136 443.1 152.2 470.1 152.2 470.1 232 488.5 232 488.5 152.2 515.5 152.2 515.5 136Z" p-id="14996"></path><path d="M426.8 136 405.4 136 387.5 166.8 369.3 136 347.8 136 376 181.9 344.8 232 366.9 232 387.2 198.8 407.4 232 429.6 232 398.4 182.6Z" p-id="14997"></path><path d="M259.5 152.2 286.6 152.2 286.6 232 305 232 305 152.2 331.9 152.2 331.9 136 259.5 136Z" p-id="14998"></path><path d="M632 106.5 803.7 240 632 240 632 106.5M624 80l-8 0 0 176 224 0 0-8L624 80 624 80z" p-id="14999"></path><path d="M576 96l0 184 0 16 16 0 232 0 0 632L200 928 200 96 576 96M592 80 184 80l0 864 656 0L840 280 592 280 592 80 592 80z" p-id="15000"></path></svg>