<?xml version="1.0" encoding="UTF-8"?>
<svg width="48px" height="48px" viewBox="0 0 48 48" version="1.1" xmlns="http://www.w3.org/2000/svg" xmlns:xlink="http://www.w3.org/1999/xlink">
    <!-- Generator: Sketch 47.1 (45422) - http://www.bohemiancoding.com/sketch -->
    <title>Slice</title>
    <desc>Created with Sketch.</desc>
    <defs></defs>
    <g id="切图" stroke="none" stroke-width="1" fill="none" fill-rule="evenodd">
        <g id="搭建网站" transform="translate(2.000000, 2.000000)" fill-rule="nonzero" fill="#333333">
            <path d="M5.94930362,29.3 C5.94930362,29.2 5.84898677,29 5.74866992,28.9 L3.94296658,29.7 C4.04328343,29.9 4.04328343,30 4.14360028,30.2 C6.35057103,35.1 10.6641957,38.9 15.7803552,40.6 L16.3822563,38.7 C11.7676811,37.1 7.95564067,33.7 5.94930362,29.3 Z M14.5765529,6.1 C14.7771866,6 14.8775035,6 15.0781372,5.9 L14.2756024,4.1 C14.0749687,4.2 13.9746518,4.3 13.7740181,4.3 C8.85849234,6.5 5.04645195,10.8 3.34106546,15.9 L5.24708566,16.5 C6.75183844,11.9 10.1626114,8.1 14.5765529,6.1 Z M37.8500627,14.5 C37.9503795,14.7 38.0506964,14.9 38.1510132,15.1 L39.9567166,14.3 C39.8563997,14.1 39.7560829,13.9 39.655766,13.7 C37.3484784,8.8 33.0348538,5.1 27.9186943,3.5 L27.3167932,5.4 C31.9313684,6.8 35.7434088,10.2 37.8500627,14.5 Z M29.4234471,37.8 C29.2228134,37.9 29.0221797,38 28.821546,38.1 L29.6240808,39.9 C29.8247145,39.8 30.0253482,39.7 30.2259819,39.6 C35.1415077,37.3 38.8532312,33 40.4583008,27.9 L38.5522806,27.3 C37.1478447,32 33.7370717,35.8 29.4234471,37.8 Z M41.7624199,17.7 C41.1605188,17.4 40.5586177,17.3 39.9567166,17.3 C39.0538649,17.3 38.1510132,17.6 37.4487953,18.2 C36.947211,17.8 36.4456267,17.3 35.9440425,16.9 C34.8405571,16 33.6367549,15.2 32.3326358,14.6 C31.4297841,14.1 30.4266156,13.7 29.4234471,13.4 C28.821546,12.3 28.2196448,11.2 27.41711,10.1 L26.6145752,10.7 C27.2164763,11.4 27.6177437,12.2 28.119328,13 C23.6050696,11.8 18.8901776,12.1 14.5765529,14 C14.7771866,13.4 15.0781372,12.8 15.3790877,12.2 C15.9809889,11 16.7835237,9.8 17.5860585,8.7 C17.9873259,8.2 18.3885933,7.8 18.7898607,7.3 C18.9904944,7.5 19.1911281,7.6 19.4920787,7.7 C20.0939798,8 20.6958809,8.1 21.297782,8.1 C22.9028517,8.1 24.2069708,7.2 24.9091887,5.9 C25.410773,4.9 25.5110898,3.8 25.1098224,2.8 C24.8088719,1.8 24.006337,0.9 23.1034854,0.4 C22.6019011,0.1 22,0 21.297782,0 C19.6927124,0 18.3885933,0.9 17.6863753,2.2 C17.1847911,3.2 17.0844742,4.3 17.4857416,5.3 C17.5860585,5.7 17.8870091,6.1 18.0876428,6.5 C17.5860585,7 17.1847911,7.5 16.7835237,8 C15.880672,9.1 15.0781372,10.4 14.4762361,11.6 C13.9746518,12.5 13.5733844,13.5 13.2724338,14.5 C12.1689485,15.1 11.0654631,15.7 9.96197772,16.5 L10.5638788,17.3 C11.2660968,16.8 12.0686316,16.3 12.8711664,15.8 C11.6673642,20.3 12.0686316,25 13.874335,29.3 C13.2724338,29.1 12.6705327,28.8 12.0686316,28.5 C10.8648294,27.9 9.66102716,27.1 8.55754178,26.3 C8.05595752,25.9 7.65469011,25.5 7.15310585,25.1 C7.35373956,24.9 7.45405641,24.6 7.65469011,24.4 C8.65785864,22.4 7.85532382,19.9 5.84898677,18.9 C5.24708566,18.6 4.64518454,18.5 4.04328343,18.5 C2.43821379,18.5 1.03377786,19.4 0.431876743,20.8 C-0.57129178,22.8 0.231243038,25.3 2.23758009,26.3 C2.8394812,26.6 3.44138231,26.7 4.04328343,26.7 C4.9461351,26.7 5.84898677,26.4 6.55120474,25.8 C7.052789,26.2 7.55437326,26.7 8.05595752,27.1 C9.1594429,28 10.3632451,28.8 11.6673642,29.4 C12.5702159,29.9 13.5733844,30.3 14.5765529,30.6 C15.178454,31.7 15.7803552,32.8 16.58289,33.9 L17.3854248,33.3 C16.7835237,32.6 16.3822563,31.8 15.880672,31 C17.6863753,31.5 19.4920787,31.7 21.297782,31.7 C24.1066539,31.7 26.8152089,31.1 29.4234471,30 C29.2228134,30.6 28.9218628,31.2 28.6209123,31.8 C28.0190111,33 27.2164763,34.2 26.4139415,35.3 C26.0126741,35.8 25.6114067,36.3 25.2101393,36.7 C25.0095056,36.5 24.708555,36.4 24.5079213,36.3 C23.9060202,36 23.3041191,35.9 22.702218,35.9 C21.0971483,35.9 19.7930292,36.8 19.0908113,38.1 C18.589227,39.1 18.4889102,40.2 18.8901776,41.2 C19.1911281,42.2 19.993663,43.1 20.8965146,43.6 C21.4984157,43.9 22.1003169,44 22.702218,44 C24.3072876,44 25.6114067,43.1 26.3136247,41.8 C26.8152089,40.8 26.9155258,39.7 26.5142584,38.7 C26.4139415,38.3 26.1129909,37.9 25.9123572,37.5 C26.4139415,37 26.8152089,36.5 27.2164763,36 C28.119328,34.9 28.9218628,33.7 29.5237639,32.4 C30.0253482,31.5 30.4266156,30.5 30.7275662,29.5 C31.8310515,28.9 32.9345369,28.3 34.0380223,27.5 L33.4361212,26.7 C32.7339032,27.2 31.9313684,27.7 31.1288336,28.2 C32.3326358,23.7 31.9313684,19 30.125665,14.7 C30.7275662,14.9 31.3294673,15.2 31.9313684,15.5 C33.1351706,16.1 34.3389728,16.9 35.4424582,17.7 C35.9440425,18.1 36.3453099,18.5 36.8468941,18.9 C36.6462604,19.1 36.5459436,19.4 36.3453099,19.6 C35.3421414,21.6 36.1446762,24.1 38.1510132,25.1 C38.7529143,25.4 39.3548155,25.5 39.9567166,25.5 C41.5617862,25.5 42.9662221,24.6 43.5681233,23.2 C44.5712918,21.2 43.768757,18.8 41.7624199,17.7 Z M18.589227,2.7 C19.0908113,1.7 20.1942967,1 21.3980989,1 C21.8996831,1 22.3009506,1.1 22.8025348,1.3 C23.5047528,1.7 24.1066539,2.3 24.3072876,3.1 C24.6082382,3.9 24.5079213,4.7 24.1066539,5.4 C23.6050696,6.4 22.5015843,7.1 21.297782,7.1 C20.7961978,7.1 20.3949304,7 19.8933461,6.8 C19.1911281,6.4 18.589227,5.8 18.3885933,5 C18.0876428,4.2 18.1879596,3.4 18.589227,2.7 Z M6.65152159,24 C6.14993733,25.1 5.04645195,25.7 3.84264972,25.7 C3.34106546,25.7 2.93979805,25.6 2.43821379,25.4 C0.933461005,24.6 0.331559891,22.8 1.03377786,21.2 C1.53536212,20.1 2.63884749,19.5 3.84264972,19.5 C4.34423399,19.5 4.74550139,19.6 5.24708566,19.8 C6.85215529,20.6 7.45405641,22.4 6.65152159,24 Z M25.2101393,41.3 C24.708555,42.3 23.6050696,43 22.4012674,43 C21.8996831,43 21.4984157,42.9 20.9968315,42.7 C20.2946135,42.3 19.6927124,41.7 19.4920787,40.9 C19.1911281,40.1 19.291445,39.3 19.6927124,38.6 C20.1942967,37.6 21.297782,36.9 22.5015843,36.9 C23.0031685,36.9 23.4044359,37 23.9060202,37.2 C24.6082382,37.6 25.2101393,38.2 25.410773,39 C25.7117235,39.8 25.6114067,40.6 25.2101393,41.3 Z M29.7243976,28.8 C25.1098224,31 19.8933461,31.3 15.0781372,29.8 C12.8711664,25.2 12.5702159,20 14.0749687,15.2 C14.1752855,15.2 14.1752855,15.1 14.2756024,15.1 C18.8901776,13 24.006337,12.7 28.7212291,14.2 C30.9281999,18.7 31.2291504,23.9 29.7243976,28.8 Z M42.6652716,22.8 C42.1636873,23.9 41.0602019,24.5 39.8563997,24.5 C39.3548155,24.5 38.953548,24.4 38.4519638,24.2 C36.947211,23.4 36.3453099,21.6 37.0475279,20 C37.5491121,18.9 38.6525975,18.3 39.8563997,18.3 C40.357984,18.3 40.7592514,18.4 41.2608357,18.6 C42.7655884,19.4 43.3674896,21.3 42.6652716,22.8 Z" id="Shape"></path>
        </g>
    </g>
</svg>