<?xml version="1.0" encoding="UTF-8"?>
<svg width="48px" height="48px" viewBox="0 0 48 48" version="1.1" xmlns="http://www.w3.org/2000/svg" xmlns:xlink="http://www.w3.org/1999/xlink">
    <!-- Generator: Sketch 47.1 (45422) - http://www.bohemiancoding.com/sketch -->
    <title>Slice</title>
    <desc>Created with Sketch.</desc>
    <defs></defs>
    <g id="切图" stroke="none" stroke-width="1" fill="none" fill-rule="evenodd">
        <g id="电商应用微服务化" transform="translate(5.000000, 2.000000)" fill-rule="nonzero" fill="#333333">
            <path d="M36,4.5 C36,3.948 35.552,3.5 35,3.5 C34.448,3.5 34,3.948 34,4.5 C34,5.052 34.448,5.5 35,5.5 C35.552,5.5 36,5.052 36,4.5 Z M18.487282,22.278974 C17.986359,20.953333 16.717128,20 15,20 C13.38441,20 12.013641,20.953333 11.513846,22.277846 C9.6681026,22.465128 8,23.897949 8,25.641026 C8,27.510462 9.8835897,29.025641 11.923385,29.025641 L18.076615,29.025641 C20.11641,29.025641 22,27.510462 22,25.641026 C22,23.899077 20.333026,22.465128 18.487282,22.278974 Z M18.116923,28 L12,28 C10.586359,28 9,26.74441 9,25.5 C9,24.353744 10.0784615,23.838974 11.371385,23.708103 C11.796718,23.665231 12.162256,23.384308 12.313436,22.983795 C12.663179,22.058667 13.896615,21 15,21 C16.155282,21 16.808205,22.014667 17.174872,22.984923 C17.326051,23.385436 17.690462,23.665231 18.116923,23.709231 C19.409846,23.840103 21,24.353744 21,25.5 C21,26.743282 19.530564,28 18.116923,28 Z M5.5,9 C4.672,9 4,9.672 4,10.5 C4,11.328 4.672,12 5.5,12 C6.328,12 7,11.328 7,10.5 C7,9.673 6.328,9 5.5,9 Z M32,22.984923 C31.688615,22.984923 31.512615,23.253386 31.512615,23.564771 C31.512615,23.876156 31.688615,24 32,24 C33.607692,24 35,22.434872 35,20.5 C35,18.808821 33.923077,17.5 32,17 C31.687205,16.918673 31.553231,17.190872 31.512615,17.5 C31.472,17.809128 31.690872,17.959385 32,18 C32.973641,18.125231 34,19.384205 34,20.5 C34.001128,21.790667 32.964615,22.984923 32,22.984923 Z M23.5,9 C22.672,9 22,9.672 22,10.5 C22,11.328 22.672,12 23.5,12 C24.328,12 25,11.328 25,10.5 C25,9.673 24.328,9 23.5,9 Z M24.262256,3 L5.4556923,3 C2.3147692,3 0,6.32 0,9.281538 L0,38 C0,40.961538 2.313641,44 5.4556923,44 L24.263385,44 C27.404308,44 29.975487,41.013641 29.975487,38.052103 L29.975487,9.333641 C29.974359,6.372103 27.403179,3 24.262256,3 Z M24.262256,42 L5.4556923,42.129542 C3.5501538,42.129542 2,40.424371 2,38.643699 L2,9 C2,7.219328 3.5501538,5 5.4556923,5 L24.262256,5 C26.167795,5 28,7.089787 28,8.870458 L28,38.514157 C27.998872,40.294829 26.167795,42 24.262256,42 Z M34.609026,0 L16.960513,0 C15.945128,0 14.233641,0.377949 13.681949,1.42041 C13.53641,1.695692 13.641333,2.03641 13.916615,2.183077 C14.194154,2.328615 14.532615,2.223692 14.679282,1.94841 C14.906051,1.519692 15.993641,1 16.960513,1 L34.609026,1 C37.255795,1 38,2.389538 38,5.217949 L37.931179,34.667487 C37.931179,37.270256 37.366359,38.052103 34.541333,38.052103 L32.302974,38.052103 C31.99159,38.052103 31.738872,38.304821 31.738872,38.616205 C31.738872,38.92759 32.059282,39 32.370667,39 L34.609026,39 C38.082769,39 38.931179,37.930256 38.931179,34.667487 L39,5.217949 C38.998872,1.755487 37.897744,0 34.609026,0 Z" id="云硬盘备份VBS"></path>
        </g>
    </g>
</svg>