<?xml version="1.0" encoding="UTF-8"?>
<svg width="48px" height="48px" viewBox="0 0 48 48" version="1.1" xmlns="http://www.w3.org/2000/svg" xmlns:xlink="http://www.w3.org/1999/xlink">
    <!-- Generator: Sketch 47.1 (45422) - http://www.bohemiancoding.com/sketch -->
    <title>Slice</title>
    <desc>Created with Sketch.</desc>
    <defs></defs>
    <g id="切图" stroke="none" stroke-width="1" fill="none" fill-rule="evenodd">
        <g id="银行存款业务预测" transform="translate(2.000000, 8.000000)" fill-rule="nonzero" fill="#333333">
            <path d="M33.331,8.078 C31.704,3.379 27.251,0 22,0 C16.748,0 12.296,3.379 10.669,8.078 C4.668,8.741 0,13.823 0,20 C0,26.627 5.373,32 12,32 L32,32 C38.627,32 44,26.627 44,20 C44,13.823 39.331,8.741 33.331,8.078 Z M25,30 L19,30 L19,21 L13,21 C12.634,21 12.5,21.401 12.467,21.401 C12.463,21.363 12.742,21.259 13,21 L20.94,12.432 C21.221,12.151 21.573,11.963 21.993,12 C22.391,12.002 22.763,12.16 23.041,12.444 L30.994,20.919 C31.259,21.19 31.294,21.359 31.292,21.381 C31.274,21.406 31.373,21 30.994,21 L25,21 L25,30 Z M32,30 L26,30 L26,22 L31,22 C32.007,22 32.5,21.5 32.5,21 C32.5,20.5 32,20.5 31.71,20.22 L23.757,11.745 C23.292,11.268 22.667,11.004 22,11 C21.323,11 20.702,11.257 20.234,11.725 L12.061,20.232 C12,20.5 11.5,20.5 11.5,21 C11.5,21.5 11.992,22 13,22 L18,22 L18,30 L11.999,30 C6.485,30 1.999,25.514 1.999,20 C1.999,14.896 5.82,10.626 10.887,10.066 C11.655,9.981 12.305,9.462 12.557,8.733 C13.953,4.706 17.747,2 22,2 C26.253,2 30.047,4.705 31.441,8.732 C31.694,9.462 32.344,9.981 33.111,10.065 C38.178,10.625 41.999,14.896 41.999,19.999 C42,25.514 37.514,30 32,30 Z" id="对象存储服务OBS"></path>
        </g>
    </g>
</svg>